<svg width="284" height="269" viewBox="0 0 284 269" fill="none" xmlns="http://www.w3.org/2000/svg">
<g filter="url(#filter0_bdd_2_472)">
<mask id="path-1-inside-1_2_472" fill="white">
<path fill-rule="evenodd" clip-rule="evenodd" d="M140.339 42.4558C143.792 41.9443 145.853 46.0181 143.943 48.9404C131.004 68.7381 128.781 94.7363 140.373 117.271C155.668 147.007 189.856 160.682 220.736 151.177C224.075 150.149 227.421 153.261 225.97 156.44C218.671 172.424 206.149 186.162 189.311 194.823C149.481 215.311 100.583 199.63 80.0959 159.8C59.6084 119.97 75.2888 71.0725 115.119 50.585C123.254 46.4008 131.767 43.7251 140.339 42.4558Z"/>
</mask>
<path fill-rule="evenodd" clip-rule="evenodd" d="M140.339 42.4558C143.792 41.9443 145.853 46.0181 143.943 48.9404C131.004 68.7381 128.781 94.7363 140.373 117.271C155.668 147.007 189.856 160.682 220.736 151.177C224.075 150.149 227.421 153.261 225.97 156.44C218.671 172.424 206.149 186.162 189.311 194.823C149.481 215.311 100.583 199.63 80.0959 159.8C59.6084 119.97 75.2888 71.0725 115.119 50.585C123.254 46.4008 131.767 43.7251 140.339 42.4558Z" fill="url(#paint0_linear_2_472)"/>
<path d="M225.97 156.44L224.15 155.609L225.97 156.44ZM140.339 42.4558L140.632 44.4342L140.339 42.4558ZM142.151 116.357C130.902 94.4869 133.056 69.2547 145.617 50.0346L142.269 47.8463C128.953 68.2216 126.66 94.9857 138.594 118.186L142.151 116.357ZM220.148 149.265C190.178 158.49 156.995 145.215 142.151 116.357L138.594 118.186C154.34 148.798 189.534 162.873 221.324 153.088L220.148 149.265ZM224.15 155.609C217.032 171.199 204.821 184.596 188.396 193.045L190.226 196.602C207.477 187.728 220.311 173.648 227.789 157.27L224.15 155.609ZM188.396 193.045C149.548 213.027 101.857 197.733 81.8744 158.885L78.3174 160.715C99.3101 201.527 149.413 217.595 190.226 196.602L188.396 193.045ZM81.8744 158.885C61.8921 120.037 77.1859 72.3458 116.034 52.3635L114.204 48.8065C73.3918 69.7992 57.3246 119.902 78.3174 160.715L81.8744 158.885ZM116.034 52.3635C123.971 48.2808 132.274 45.6719 140.632 44.4342L140.046 40.4773C131.26 41.7784 122.537 44.5207 114.204 48.8065L116.034 52.3635ZM221.324 153.088C222.247 152.804 223.168 153.091 223.752 153.662C224.306 154.203 224.478 154.89 224.15 155.609L227.789 157.27C228.912 154.811 228.137 152.353 226.546 150.8C224.986 149.276 222.564 148.521 220.148 149.265L221.324 153.088ZM145.617 50.0346C146.999 47.9201 146.945 45.3854 145.915 43.4648C144.864 41.5068 142.719 40.0815 140.046 40.4773L140.632 44.4342C141.412 44.3186 142.024 44.6745 142.39 45.356C142.776 46.0751 142.797 47.0385 142.269 47.8463L145.617 50.0346Z" fill="url(#paint1_linear_2_472)" mask="url(#path-1-inside-1_2_472)"/>
</g>
<g filter="url(#filter1_bdd_2_472)">
<path d="M174.082 45.1879C174.645 43.2754 177.355 43.2754 177.918 45.188L180.018 52.31C180.21 52.9614 180.72 53.4708 181.371 53.6628L188.493 55.7625C190.406 56.3264 190.406 59.0354 188.493 59.5993L181.371 61.699C180.72 61.891 180.21 62.4004 180.018 63.0518L177.918 70.1739C177.355 72.0865 174.645 72.0864 174.082 70.1739L171.982 63.0518C171.79 62.4004 171.28 61.891 170.629 61.699L163.507 59.5993C161.594 59.0354 161.594 56.3264 163.507 55.7625L170.629 53.6628C171.28 53.4708 171.79 52.9614 171.982 52.31L174.082 45.1879Z" fill="url(#paint2_linear_2_472)"/>
<path d="M175.041 45.4707C175.323 44.5144 176.677 44.5144 176.959 45.4707L179.059 52.5928C179.347 53.5699 180.111 54.334 181.088 54.622L188.21 56.7217C189.166 57.0037 189.166 58.3582 188.21 58.6401L181.088 60.7398C180.111 61.0278 179.347 61.792 179.059 62.769L176.959 69.8911C176.677 70.8474 175.323 70.8474 175.041 69.8911L172.941 62.769C172.653 61.792 171.889 61.0278 170.912 60.7398L163.79 58.6401C162.834 58.3582 162.834 57.0037 163.79 56.7217L170.912 54.622C171.889 54.334 172.653 53.5699 172.941 52.5928L175.041 45.4707Z" stroke="url(#paint3_linear_2_472)" stroke-width="2"/>
</g>
<g filter="url(#filter2_bdd_2_472)">
<path d="M190.082 95.1879C190.645 93.2754 193.355 93.2754 193.918 95.188L197.384 106.944C197.576 107.595 198.086 108.105 198.737 108.297L210.493 111.763C212.406 112.326 212.406 115.035 210.493 115.599L198.737 119.065C198.086 119.257 197.576 119.767 197.384 120.418L193.918 132.174C193.355 134.086 190.645 134.086 190.082 132.174L186.616 120.418C186.424 119.767 185.914 119.257 185.263 119.065L173.507 115.599C171.594 115.035 171.594 112.326 173.507 111.763L185.263 108.297C185.914 108.105 186.424 107.595 186.616 106.944L190.082 95.1879Z" fill="url(#paint4_linear_2_472)"/>
<path d="M191.041 95.4707C191.323 94.5144 192.677 94.5144 192.959 95.4707L196.425 107.227C196.713 108.204 197.477 108.968 198.454 109.256L210.21 112.722C211.166 113.004 211.166 114.358 210.21 114.64L198.454 118.106C197.477 118.394 196.713 119.158 196.425 120.135L192.959 131.891C192.677 132.847 191.323 132.847 191.041 131.891L187.575 120.135C187.287 119.158 186.523 118.394 185.546 118.106L173.79 114.64C172.834 114.358 172.834 113.004 173.79 112.722L185.546 109.256C186.523 108.968 187.287 108.204 187.575 107.227L191.041 95.4707Z" stroke="url(#paint5_linear_2_472)" stroke-width="2"/>
</g>
<g filter="url(#filter3_bdd_2_472)">
<path d="M242.082 84.188C242.645 82.2754 245.355 82.2754 245.918 84.188L247.335 88.9931C247.527 89.6445 248.036 90.1539 248.688 90.3459L253.493 91.7625C255.406 92.3264 255.406 95.0354 253.493 95.5993L248.688 97.0159C248.036 97.2079 247.527 97.7174 247.335 98.3687L245.918 103.174C245.355 105.086 242.645 105.086 242.082 103.174L240.665 98.3687C240.473 97.7174 239.964 97.2079 239.312 97.0159L234.507 95.5993C232.594 95.0354 232.594 92.3264 234.507 91.7625L239.312 90.3459C239.964 90.1539 240.473 89.6445 240.665 88.9931L242.082 84.188Z" fill="url(#paint6_linear_2_472)"/>
<path d="M243.041 84.4707C243.323 83.5144 244.677 83.5144 244.959 84.4707L246.376 89.2759C246.664 90.2529 247.428 91.0171 248.405 91.3051L253.21 92.7217C254.166 93.0037 254.166 94.3582 253.21 94.6401L248.405 96.0567C247.428 96.3448 246.664 97.1089 246.376 98.0859L244.959 102.891C244.677 103.847 243.323 103.847 243.041 102.891L241.624 98.0859C241.336 97.1089 240.572 96.3448 239.595 96.0567L234.79 94.6401C233.834 94.3582 233.834 93.0037 234.79 92.7217L239.595 91.3051L239.312 90.3459L239.595 91.3051C240.572 91.0171 241.336 90.2529 241.624 89.2759L243.041 84.4707Z" stroke="url(#paint7_linear_2_472)" stroke-width="2"/>
</g>
<g filter="url(#filter4_bdd_2_472)">
<path d="M224.082 37.188C224.645 35.2754 227.355 35.2754 227.918 37.188L229.335 41.9931C229.527 42.6445 230.036 43.1539 230.688 43.3459L235.493 44.7625C237.406 45.3264 237.406 48.0354 235.493 48.5993L230.688 50.0159C230.036 50.2079 229.527 50.7174 229.335 51.3687L227.918 56.1739C227.355 58.0865 224.645 58.0864 224.082 56.1739L222.665 51.3687C222.473 50.7174 221.964 50.2079 221.312 50.0159L216.507 48.5993C214.594 48.0354 214.594 45.3264 216.507 44.7625L221.312 43.3459C221.964 43.1539 222.473 42.6445 222.665 41.9931L224.082 37.188Z" fill="url(#paint8_linear_2_472)"/>
<path d="M225.041 37.4707C225.323 36.5144 226.677 36.5144 226.959 37.4707L228.376 42.2759C228.664 43.2529 229.428 44.0171 230.405 44.3051L235.21 45.7217C236.166 46.0037 236.166 47.3582 235.21 47.6401L230.405 49.0567C229.428 49.3448 228.664 50.1089 228.376 51.0859L226.959 55.8911C226.677 56.8474 225.323 56.8474 225.041 55.8911L223.624 51.0859C223.336 50.1089 222.572 49.3448 221.595 49.0567L216.79 47.6401C215.834 47.3582 215.834 46.0037 216.79 45.7217L221.595 44.3051L221.312 43.3459L221.595 44.3051C222.572 44.0171 223.336 43.2529 223.624 42.2759L225.041 37.4707Z" stroke="url(#paint9_linear_2_472)" stroke-width="2"/>
</g>
<defs>
<filter id="filter0_bdd_2_472" x="0.0976562" y="4.41187" width="264.22" height="264.41" filterUnits="userSpaceOnUse" color-interpolation-filters="sRGB">
<feFlood flood-opacity="0" result="BackgroundImageFix"/>
<feGaussianBlur in="BackgroundImageFix" stdDeviation="7"/>
<feComposite in2="SourceAlpha" operator="in" result="effect1_backgroundBlur_2_472"/>
<feColorMatrix in="SourceAlpha" type="matrix" values="0 0 0 0 0 0 0 0 0 0 0 0 0 0 0 0 0 0 127 0" result="hardAlpha"/>
<feOffset dx="-21" dy="15"/>
<feGaussianBlur stdDeviation="25"/>
<feComposite in2="hardAlpha" operator="out"/>
<feColorMatrix type="matrix" values="0 0 0 0 0.113438 0 0 0 0 0.148981 0 0 0 0 0.275 0 0 0 0.25 0"/>
<feBlend mode="normal" in2="effect1_backgroundBlur_2_472" result="effect2_dropShadow_2_472"/>
<feColorMatrix in="SourceAlpha" type="matrix" values="0 0 0 0 0 0 0 0 0 0 0 0 0 0 0 0 0 0 127 0" result="hardAlpha"/>
<feOffset/>
<feGaussianBlur stdDeviation="19"/>
<feComposite in2="hardAlpha" operator="out"/>
<feColorMatrix type="matrix" values="0 0 0 0 0.619608 0 0 0 0 0.423529 0 0 0 0 1 0 0 0 0.4 0"/>
<feBlend mode="normal" in2="effect2_dropShadow_2_472" result="effect3_dropShadow_2_472"/>
<feBlend mode="normal" in="SourceGraphic" in2="effect3_dropShadow_2_472" result="shape"/>
</filter>
<filter id="filter1_bdd_2_472" x="91.0726" y="8.75342" width="127.855" height="127.855" filterUnits="userSpaceOnUse" color-interpolation-filters="sRGB">
<feFlood flood-opacity="0" result="BackgroundImageFix"/>
<feGaussianBlur in="BackgroundImageFix" stdDeviation="7"/>
<feComposite in2="SourceAlpha" operator="in" result="effect1_backgroundBlur_2_472"/>
<feColorMatrix in="SourceAlpha" type="matrix" values="0 0 0 0 0 0 0 0 0 0 0 0 0 0 0 0 0 0 127 0" result="hardAlpha"/>
<feOffset dx="-21" dy="15"/>
<feGaussianBlur stdDeviation="25"/>
<feComposite in2="hardAlpha" operator="out"/>
<feColorMatrix type="matrix" values="0 0 0 0 0.113438 0 0 0 0 0.148981 0 0 0 0 0.275 0 0 0 0.25 0"/>
<feBlend mode="normal" in2="effect1_backgroundBlur_2_472" result="effect2_dropShadow_2_472"/>
<feColorMatrix in="SourceAlpha" type="matrix" values="0 0 0 0 0 0 0 0 0 0 0 0 0 0 0 0 0 0 127 0" result="hardAlpha"/>
<feOffset/>
<feGaussianBlur stdDeviation="9"/>
<feComposite in2="hardAlpha" operator="out"/>
<feColorMatrix type="matrix" values="0 0 0 0 0.607843 0 0 0 0 0.392157 0 0 0 0 1 0 0 0 0.56 0"/>
<feBlend mode="normal" in2="effect2_dropShadow_2_472" result="effect3_dropShadow_2_472"/>
<feBlend mode="normal" in="SourceGraphic" in2="effect3_dropShadow_2_472" result="shape"/>
</filter>
<filter id="filter2_bdd_2_472" x="101.073" y="58.7534" width="139.855" height="139.855" filterUnits="userSpaceOnUse" color-interpolation-filters="sRGB">
<feFlood flood-opacity="0" result="BackgroundImageFix"/>
<feGaussianBlur in="BackgroundImageFix" stdDeviation="7"/>
<feComposite in2="SourceAlpha" operator="in" result="effect1_backgroundBlur_2_472"/>
<feColorMatrix in="SourceAlpha" type="matrix" values="0 0 0 0 0 0 0 0 0 0 0 0 0 0 0 0 0 0 127 0" result="hardAlpha"/>
<feOffset dx="-21" dy="15"/>
<feGaussianBlur stdDeviation="25"/>
<feComposite in2="hardAlpha" operator="out"/>
<feColorMatrix type="matrix" values="0 0 0 0 0.113438 0 0 0 0 0.148981 0 0 0 0 0.275 0 0 0 0.25 0"/>
<feBlend mode="normal" in2="effect1_backgroundBlur_2_472" result="effect2_dropShadow_2_472"/>
<feColorMatrix in="SourceAlpha" type="matrix" values="0 0 0 0 0 0 0 0 0 0 0 0 0 0 0 0 0 0 127 0" result="hardAlpha"/>
<feOffset/>
<feGaussianBlur stdDeviation="9"/>
<feComposite in2="hardAlpha" operator="out"/>
<feColorMatrix type="matrix" values="0 0 0 0 0.996078 0 0 0 0 0.764706 0 0 0 0 0.0117647 0 0 0 0.47 0"/>
<feBlend mode="normal" in2="effect2_dropShadow_2_472" result="effect3_dropShadow_2_472"/>
<feBlend mode="normal" in="SourceGraphic" in2="effect3_dropShadow_2_472" result="shape"/>
</filter>
<filter id="filter3_bdd_2_472" x="162.073" y="47.7534" width="121.855" height="121.855" filterUnits="userSpaceOnUse" color-interpolation-filters="sRGB">
<feFlood flood-opacity="0" result="BackgroundImageFix"/>
<feGaussianBlur in="BackgroundImageFix" stdDeviation="7"/>
<feComposite in2="SourceAlpha" operator="in" result="effect1_backgroundBlur_2_472"/>
<feColorMatrix in="SourceAlpha" type="matrix" values="0 0 0 0 0 0 0 0 0 0 0 0 0 0 0 0 0 0 127 0" result="hardAlpha"/>
<feOffset dx="-21" dy="15"/>
<feGaussianBlur stdDeviation="25"/>
<feComposite in2="hardAlpha" operator="out"/>
<feColorMatrix type="matrix" values="0 0 0 0 0.113438 0 0 0 0 0.148981 0 0 0 0 0.275 0 0 0 0.25 0"/>
<feBlend mode="normal" in2="effect1_backgroundBlur_2_472" result="effect2_dropShadow_2_472"/>
<feColorMatrix in="SourceAlpha" type="matrix" values="0 0 0 0 0 0 0 0 0 0 0 0 0 0 0 0 0 0 127 0" result="hardAlpha"/>
<feOffset/>
<feGaussianBlur stdDeviation="9"/>
<feComposite in2="hardAlpha" operator="out"/>
<feColorMatrix type="matrix" values="0 0 0 0 0.607843 0 0 0 0 0.392157 0 0 0 0 1 0 0 0 0.56 0"/>
<feBlend mode="normal" in2="effect2_dropShadow_2_472" result="effect3_dropShadow_2_472"/>
<feBlend mode="normal" in="SourceGraphic" in2="effect3_dropShadow_2_472" result="shape"/>
</filter>
<filter id="filter4_bdd_2_472" x="144.073" y="0.753418" width="121.855" height="121.855" filterUnits="userSpaceOnUse" color-interpolation-filters="sRGB">
<feFlood flood-opacity="0" result="BackgroundImageFix"/>
<feGaussianBlur in="BackgroundImageFix" stdDeviation="7"/>
<feComposite in2="SourceAlpha" operator="in" result="effect1_backgroundBlur_2_472"/>
<feColorMatrix in="SourceAlpha" type="matrix" values="0 0 0 0 0 0 0 0 0 0 0 0 0 0 0 0 0 0 127 0" result="hardAlpha"/>
<feOffset dx="-21" dy="15"/>
<feGaussianBlur stdDeviation="25"/>
<feComposite in2="hardAlpha" operator="out"/>
<feColorMatrix type="matrix" values="0 0 0 0 0.113438 0 0 0 0 0.148981 0 0 0 0 0.275 0 0 0 0.25 0"/>
<feBlend mode="normal" in2="effect1_backgroundBlur_2_472" result="effect2_dropShadow_2_472"/>
<feColorMatrix in="SourceAlpha" type="matrix" values="0 0 0 0 0 0 0 0 0 0 0 0 0 0 0 0 0 0 127 0" result="hardAlpha"/>
<feOffset/>
<feGaussianBlur stdDeviation="9"/>
<feComposite in2="hardAlpha" operator="out"/>
<feColorMatrix type="matrix" values="0 0 0 0 0.996078 0 0 0 0 0.764706 0 0 0 0 0.0117647 0 0 0 0.47 0"/>
<feBlend mode="normal" in2="effect2_dropShadow_2_472" result="effect3_dropShadow_2_472"/>
<feBlend mode="normal" in="SourceGraphic" in2="effect3_dropShadow_2_472" result="shape"/>
</filter>
<linearGradient id="paint0_linear_2_472" x1="99.9606" y1="59.9888" x2="174.152" y2="204.227" gradientUnits="userSpaceOnUse">
<stop offset="0.0001" stop-color="#D6C2FF"/>
<stop offset="1" stop-color="#7E2FFF"/>
</linearGradient>
<linearGradient id="paint1_linear_2_472" x1="108.038" y1="-19.3228" x2="154.183" y2="169.979" gradientUnits="userSpaceOnUse">
<stop stop-color="white"/>
<stop offset="1" stop-color="white" stop-opacity="0"/>
</linearGradient>
<linearGradient id="paint2_linear_2_472" x1="175.137" y1="39.0156" x2="175.137" y2="77.0156" gradientUnits="userSpaceOnUse">
<stop offset="0.0001" stop-color="#D6C2FF"/>
<stop offset="1" stop-color="#7E2FFF"/>
</linearGradient>
<linearGradient id="paint3_linear_2_472" x1="176" y1="38.6809" x2="176" y2="62.1809" gradientUnits="userSpaceOnUse">
<stop stop-color="white"/>
<stop offset="1" stop-color="white" stop-opacity="0"/>
</linearGradient>
<linearGradient id="paint4_linear_2_472" x1="192" y1="88.6809" x2="192" y2="138.681" gradientUnits="userSpaceOnUse">
<stop stop-color="#FFE600"/>
<stop offset="1" stop-color="#FF7A00"/>
</linearGradient>
<linearGradient id="paint5_linear_2_472" x1="192" y1="88.6809" x2="192" y2="119.602" gradientUnits="userSpaceOnUse">
<stop stop-color="white"/>
<stop offset="1" stop-color="white" stop-opacity="0"/>
</linearGradient>
<linearGradient id="paint6_linear_2_472" x1="243.273" y1="77.9628" x2="243.273" y2="109.963" gradientUnits="userSpaceOnUse">
<stop offset="0.0001" stop-color="#D6C2FF"/>
<stop offset="1" stop-color="#7E2FFF"/>
</linearGradient>
<linearGradient id="paint7_linear_2_472" x1="244" y1="77.6809" x2="244" y2="97.4704" gradientUnits="userSpaceOnUse">
<stop stop-color="white"/>
<stop offset="1" stop-color="white" stop-opacity="0"/>
</linearGradient>
<linearGradient id="paint8_linear_2_472" x1="226" y1="30.6809" x2="226" y2="62.6809" gradientUnits="userSpaceOnUse">
<stop stop-color="#FFE600"/>
<stop offset="1" stop-color="#FF7A00"/>
</linearGradient>
<linearGradient id="paint9_linear_2_472" x1="226" y1="30.6809" x2="226" y2="50.4704" gradientUnits="userSpaceOnUse">
<stop stop-color="white"/>
<stop offset="1" stop-color="white" stop-opacity="0"/>
</linearGradient>
</defs>
</svg>
