<svg width="404" height="407" viewBox="0 0 404 407" fill="none" xmlns="http://www.w3.org/2000/svg">
<g filter="url(#filter0_bdd_2_564)">
<mask id="path-1-inside-1_2_564" fill="white">
<path fill-rule="evenodd" clip-rule="evenodd" d="M239.019 38.1376C242.456 37.5279 244.545 41.5965 242.735 44.5817C233.264 60.2019 231.89 80.2295 240.858 97.6646C252.797 120.875 279.132 131.847 303.348 125.286C306.721 124.373 310.054 127.51 308.513 130.646C302.585 142.715 292.865 153.051 279.989 159.675C248.141 176.056 209.043 163.518 192.662 131.67C176.28 99.8223 188.818 60.7245 220.666 44.3428C226.597 41.2922 232.779 39.2445 239.019 38.1376Z"/>
</mask>
<path fill-rule="evenodd" clip-rule="evenodd" d="M239.019 38.1376C242.456 37.5279 244.545 41.5965 242.735 44.5817C233.264 60.2019 231.89 80.2295 240.858 97.6646C252.797 120.875 279.132 131.847 303.348 125.286C306.721 124.373 310.054 127.51 308.513 130.646C302.585 142.715 292.865 153.051 279.989 159.675C248.141 176.056 209.043 163.518 192.662 131.67C176.28 99.8223 188.818 60.7245 220.666 44.3428C226.597 41.2922 232.779 39.2445 239.019 38.1376Z" fill="url(#paint0_linear_2_564)"/>
<path d="M303.348 125.286L303.871 127.217L303.348 125.286ZM308.513 130.646L306.718 129.764L308.513 130.646ZM242.735 44.5817L241.025 43.5448L242.735 44.5817ZM239.019 38.1376L239.368 40.1069L239.019 38.1376ZM242.637 96.7498C234 79.9584 235.32 60.6692 244.445 45.6186L241.025 43.5448C231.208 59.7346 229.781 80.5007 239.08 98.5794L242.637 96.7498ZM302.825 123.356C279.5 129.675 254.135 119.104 242.637 96.7498L239.08 98.5794C251.459 122.646 278.763 134.019 303.871 127.217L302.825 123.356ZM306.718 129.764C300.973 141.461 291.555 151.476 279.074 157.896L280.904 161.453C294.175 154.627 304.197 143.969 310.308 131.528L306.718 129.764ZM279.074 157.896C248.208 173.772 210.316 161.621 194.44 130.755L190.883 132.585C207.77 165.415 248.074 178.34 280.904 161.453L279.074 157.896ZM194.44 130.755C178.564 99.8897 190.715 61.9977 221.581 46.1214L219.751 42.5643C186.921 59.4512 173.996 99.7548 190.883 132.585L194.44 130.755ZM221.581 46.1214C227.332 43.1633 233.323 41.1792 239.368 40.1069L238.669 36.1684C232.235 37.3098 225.862 39.4212 219.751 42.5643L221.581 46.1214ZM303.871 127.217C304.825 126.958 305.773 127.275 306.359 127.862C306.908 128.411 307.057 129.075 306.718 129.764L310.308 131.528C311.51 129.081 310.762 126.608 309.187 125.033C307.649 123.495 305.244 122.701 302.825 123.356L303.871 127.217ZM244.445 45.6186C245.743 43.4773 245.646 40.9478 244.595 39.0448C243.519 37.0961 241.352 35.6924 238.669 36.1684L239.368 40.1069C240.123 39.973 240.719 40.2988 241.094 40.9783C241.494 41.7034 241.536 42.7009 241.025 43.5448L244.445 45.6186Z" fill="url(#paint1_linear_2_564)" mask="url(#path-1-inside-1_2_564)"/>
</g>
<g filter="url(#filter1_bd_2_564)">
<mask id="path-3-inside-2_2_564" fill="white">
<path fill-rule="evenodd" clip-rule="evenodd" d="M265.5 272.997C265.666 272.999 265.833 273 266 273C289.748 273 309 253.748 309 230C309 206.252 289.748 187 266 187C265.833 187 265.666 187.001 265.5 187.003V187H254.391C254.793 184.057 255 181.053 255 178C255 141.549 225.451 112 189 112C152.549 112 123 141.549 123 178C123 181.439 123.263 184.817 123.77 188.115C120.631 187.386 117.361 187 114 187C90.2518 187 71 206.252 71 230C71 253.748 90.2518 273 114 273C114.168 273 114.335 272.999 114.502 272.997L114.5 273H265.5V272.997Z"/>
</mask>
<path fill-rule="evenodd" clip-rule="evenodd" d="M265.5 272.997C265.666 272.999 265.833 273 266 273C289.748 273 309 253.748 309 230C309 206.252 289.748 187 266 187C265.833 187 265.666 187.001 265.5 187.003V187H254.391C254.793 184.057 255 181.053 255 178C255 141.549 225.451 112 189 112C152.549 112 123 141.549 123 178C123 181.439 123.263 184.817 123.77 188.115C120.631 187.386 117.361 187 114 187C90.2518 187 71 206.252 71 230C71 253.748 90.2518 273 114 273C114.168 273 114.335 272.999 114.502 272.997L114.5 273H265.5V272.997Z" fill="url(#paint2_linear_2_564)" shape-rendering="crispEdges"/>
<path d="M265.5 272.997L265.534 269.997C264.733 269.988 263.961 270.3 263.391 270.864C262.821 271.427 262.5 272.196 262.5 272.997H265.5ZM265.5 187.003H262.5C262.5 187.804 262.821 188.573 263.391 189.136C263.961 189.7 264.733 190.012 265.534 190.003L265.5 187.003ZM265.5 187H268.5C268.5 185.343 267.157 184 265.5 184V187ZM254.391 187L251.419 186.595C251.302 187.453 251.562 188.32 252.131 188.973C252.701 189.625 253.525 190 254.391 190V187ZM123.77 188.115L123.091 191.037C124.061 191.262 125.08 190.992 125.81 190.315C126.54 189.638 126.887 188.643 126.735 187.659L123.77 188.115ZM114.502 272.997L116.856 274.857C117.573 273.95 117.705 272.711 117.195 271.674C116.685 270.636 115.624 269.984 114.468 269.997L114.502 272.997ZM114.5 273L112.146 271.14C111.433 272.043 111.299 273.273 111.8 274.308C112.301 275.343 113.35 276 114.5 276V273ZM265.5 273V276C267.157 276 268.5 274.657 268.5 273H265.5ZM265.466 275.997C265.644 275.999 265.822 276 266 276V270C265.845 270 265.689 269.999 265.534 269.997L265.466 275.997ZM266 276C291.405 276 312 255.405 312 230H306C306 252.091 288.091 270 266 270V276ZM312 230C312 204.595 291.405 184 266 184V190C288.091 190 306 207.909 306 230H312ZM266 184C265.822 184 265.644 184.001 265.466 184.003L265.534 190.003C265.689 190.001 265.844 190 266 190V184ZM262.5 187V187.003H268.5V187H262.5ZM254.391 190H265.5V184H254.391V190ZM257.364 187.405C257.783 184.329 258 181.189 258 178H252C252 180.917 251.802 183.786 251.419 186.595L257.364 187.405ZM258 178C258 139.892 227.108 109 189 109V115C223.794 115 252 143.206 252 178H258ZM189 109C150.892 109 120 139.892 120 178H126C126 143.206 154.206 115 189 115V109ZM120 178C120 181.593 120.275 185.123 120.805 188.571L126.735 187.659C126.251 184.512 126 181.286 126 178H120ZM124.449 185.193C121.089 184.412 117.591 184 114 184V190C117.131 190 120.174 190.359 123.091 191.037L124.449 185.193ZM114 184C88.5949 184 68 204.595 68 230H74C74 207.909 91.9086 190 114 190V184ZM68 230C68 255.405 88.5949 276 114 276V270C91.9086 270 74 252.091 74 230H68ZM114 276C114.179 276 114.358 275.999 114.536 275.997L114.468 269.997C114.312 269.999 114.156 270 114 270V276ZM116.854 274.86L116.856 274.857L112.148 271.138L112.146 271.14L116.854 274.86ZM265.5 270H114.5V276H265.5V270ZM262.5 272.997V273H268.5V272.997H262.5Z" fill="url(#paint3_linear_2_564)" mask="url(#path-3-inside-2_2_564)"/>
</g>
<g filter="url(#filter2_bd_2_564)">
<mask id="path-5-inside-3_2_564" fill="white">
<path fill-rule="evenodd" clip-rule="evenodd" d="M343.563 228.351C343.683 228.352 343.804 228.353 343.924 228.353C361.087 228.353 375 214.44 375 197.277C375 180.115 361.087 166.202 343.924 166.202C343.804 166.202 343.683 166.202 343.563 166.204V166.202H335.535C335.825 164.075 335.975 161.904 335.975 159.697C335.975 133.355 314.62 112 288.277 112C261.935 112 240.58 133.355 240.58 159.697C240.58 162.183 240.77 164.624 241.136 167.007C238.868 166.48 236.504 166.202 234.076 166.202C216.913 166.202 203 180.115 203 197.277C203 214.44 216.913 228.353 234.076 228.353C234.197 228.353 234.318 228.352 234.439 228.351L234.437 228.353H343.563V228.351Z"/>
</mask>
<path fill-rule="evenodd" clip-rule="evenodd" d="M343.563 228.351C343.683 228.352 343.804 228.353 343.924 228.353C361.087 228.353 375 214.44 375 197.277C375 180.115 361.087 166.202 343.924 166.202C343.804 166.202 343.683 166.202 343.563 166.204V166.202H335.535C335.825 164.075 335.975 161.904 335.975 159.697C335.975 133.355 314.62 112 288.277 112C261.935 112 240.58 133.355 240.58 159.697C240.58 162.183 240.77 164.624 241.136 167.007C238.868 166.48 236.504 166.202 234.076 166.202C216.913 166.202 203 180.115 203 197.277C203 214.44 216.913 228.353 234.076 228.353C234.197 228.353 234.318 228.352 234.439 228.351L234.437 228.353H343.563V228.351Z" fill="url(#paint4_linear_2_564)" shape-rendering="crispEdges"/>
<path d="M343.563 228.351L343.597 225.351C342.796 225.342 342.024 225.654 341.454 226.217C340.884 226.781 340.563 227.549 340.563 228.351H343.563ZM343.563 166.204H340.563C340.563 167.005 340.884 167.774 341.454 168.337C342.024 168.901 342.796 169.213 343.597 169.204L343.563 166.204ZM343.563 166.202H346.563C346.563 164.545 345.22 163.202 343.563 163.202V166.202ZM335.535 166.202L332.563 165.796C332.445 166.655 332.705 167.522 333.275 168.175C333.845 168.827 334.669 169.202 335.535 169.202V166.202ZM241.136 167.007L240.458 169.93C241.427 170.155 242.446 169.884 243.176 169.207C243.906 168.531 244.253 167.535 244.102 166.551L241.136 167.007ZM234.439 228.351L236.793 230.21C237.509 229.303 237.641 228.065 237.131 227.027C236.621 225.99 235.56 225.338 234.404 225.351L234.439 228.351ZM234.437 228.353L232.082 226.494C231.37 227.396 231.236 228.627 231.737 229.661C232.239 230.696 233.287 231.353 234.437 231.353V228.353ZM343.563 228.353V231.353C345.22 231.353 346.563 230.01 346.563 228.353H343.563ZM343.529 231.351C343.661 231.352 343.792 231.353 343.924 231.353V225.353C343.815 225.353 343.706 225.352 343.597 225.351L343.529 231.351ZM343.924 231.353C362.744 231.353 378 216.097 378 197.277H372C372 212.783 359.43 225.353 343.924 225.353V231.353ZM378 197.277C378 178.458 362.744 163.202 343.924 163.202V169.202C359.43 169.202 372 181.772 372 197.277H378ZM343.924 163.202C343.792 163.202 343.661 163.202 343.529 163.204L343.597 169.204C343.706 169.202 343.815 169.202 343.924 169.202V163.202ZM340.563 166.202V166.204H346.563V166.202H340.563ZM335.535 169.202H343.563V163.202H335.535V169.202ZM338.508 166.607C338.816 164.346 338.975 162.04 338.975 159.697H332.975C332.975 161.768 332.834 163.804 332.563 165.796L338.508 166.607ZM338.975 159.697C338.975 131.698 316.277 109 288.277 109V115C312.963 115 332.975 135.012 332.975 159.697H338.975ZM288.277 109C260.278 109 237.58 131.698 237.58 159.697H243.58C243.58 135.012 263.592 115 288.277 115V109ZM237.58 159.697C237.58 162.336 237.782 164.93 238.171 167.463L244.102 166.551C243.758 164.319 243.58 162.03 243.58 159.697H237.58ZM241.815 164.085C239.326 163.507 236.735 163.202 234.076 163.202V169.202C236.274 169.202 238.41 169.454 240.458 169.93L241.815 164.085ZM234.076 163.202C215.256 163.202 200 178.458 200 197.277H206C206 181.772 218.57 169.202 234.076 169.202V163.202ZM200 197.277C200 216.097 215.256 231.353 234.076 231.353V225.353C218.57 225.353 206 212.783 206 197.277H200ZM234.076 231.353C234.208 231.353 234.341 231.352 234.473 231.351L234.404 225.351C234.295 225.352 234.185 225.353 234.076 225.353V231.353ZM236.792 230.212L236.793 230.21L232.084 226.492L232.082 226.494L236.792 230.212ZM343.563 225.353H234.437V231.353H343.563V225.353ZM340.563 228.351V228.353H346.563V228.351H340.563Z" fill="url(#paint5_linear_2_564)" mask="url(#path-5-inside-3_2_564)"/>
</g>
<g filter="url(#filter3_bdd_2_564)">
<path d="M130.102 262.607C133.123 258.731 139.332 260.62 139.682 265.521L140.856 281.955C141.44 290.133 133.64 296.355 125.796 293.969C117.951 291.583 114.938 282.072 119.977 275.604L130.102 262.607Z" fill="url(#paint6_linear_2_564)" stroke="url(#paint7_linear_2_564)" stroke-width="3"/>
<path d="M187.61 262.607C190.63 258.731 196.84 260.62 197.19 265.521L198.363 281.955C198.947 290.133 191.148 296.355 183.303 293.969C175.459 291.583 172.445 282.072 177.484 275.604L187.61 262.607Z" fill="url(#paint8_linear_2_564)" stroke="url(#paint9_linear_2_564)" stroke-width="3"/>
<path d="M245.117 262.607C248.137 258.731 254.347 260.62 254.697 265.521L255.87 281.955C256.454 290.133 248.655 296.355 240.81 293.969C232.966 291.583 229.952 282.072 234.992 275.604L245.117 262.607Z" fill="url(#paint10_linear_2_564)" stroke="url(#paint11_linear_2_564)" stroke-width="3"/>
</g>
<g filter="url(#filter4_bdd_2_564)">
<path d="M145.276 308.128C148.296 304.251 154.506 306.14 154.856 311.042L156.029 327.475C156.613 335.654 148.814 341.876 140.969 339.49C133.125 337.104 130.111 327.592 135.151 321.124L145.276 308.128Z" fill="url(#paint12_linear_2_564)" stroke="url(#paint13_linear_2_564)" stroke-width="3"/>
<path d="M193.863 308.128C196.883 304.251 203.093 306.14 203.443 311.042L204.616 327.475C205.2 335.654 197.401 341.876 189.556 339.49C181.712 337.104 178.698 327.592 183.738 321.124L193.863 308.128Z" fill="url(#paint14_linear_2_564)" stroke="url(#paint15_linear_2_564)" stroke-width="3"/>
</g>
<defs>
<filter id="filter0_bdd_2_564" x="114.467" y="0.0761719" width="232.434" height="231.793" filterUnits="userSpaceOnUse" color-interpolation-filters="sRGB">
<feFlood flood-opacity="0" result="BackgroundImageFix"/>
<feGaussianBlur in="BackgroundImageFix" stdDeviation="7"/>
<feComposite in2="SourceAlpha" operator="in" result="effect1_backgroundBlur_2_564"/>
<feColorMatrix in="SourceAlpha" type="matrix" values="0 0 0 0 0 0 0 0 0 0 0 0 0 0 0 0 0 0 127 0" result="hardAlpha"/>
<feOffset dx="-21" dy="15"/>
<feGaussianBlur stdDeviation="25"/>
<feComposite in2="hardAlpha" operator="out"/>
<feColorMatrix type="matrix" values="0 0 0 0 0.113438 0 0 0 0 0.148981 0 0 0 0 0.275 0 0 0 0.25 0"/>
<feBlend mode="normal" in2="effect1_backgroundBlur_2_564" result="effect2_dropShadow_2_564"/>
<feColorMatrix in="SourceAlpha" type="matrix" values="0 0 0 0 0 0 0 0 0 0 0 0 0 0 0 0 0 0 127 0" result="hardAlpha"/>
<feOffset/>
<feGaussianBlur stdDeviation="19"/>
<feComposite in2="hardAlpha" operator="out"/>
<feColorMatrix type="matrix" values="0 0 0 0 0.619608 0 0 0 0 0.423529 0 0 0 0 1 0 0 0 0.4 0"/>
<feBlend mode="normal" in2="effect2_dropShadow_2_564" result="effect3_dropShadow_2_564"/>
<feBlend mode="normal" in="SourceGraphic" in2="effect3_dropShadow_2_564" result="shape"/>
</filter>
<filter id="filter1_bd_2_564" x="0" y="77" width="338" height="261" filterUnits="userSpaceOnUse" color-interpolation-filters="sRGB">
<feFlood flood-opacity="0" result="BackgroundImageFix"/>
<feGaussianBlur in="BackgroundImageFix" stdDeviation="7"/>
<feComposite in2="SourceAlpha" operator="in" result="effect1_backgroundBlur_2_564"/>
<feColorMatrix in="SourceAlpha" type="matrix" values="0 0 0 0 0 0 0 0 0 0 0 0 0 0 0 0 0 0 127 0" result="hardAlpha"/>
<feOffset dx="-21" dy="15"/>
<feGaussianBlur stdDeviation="25"/>
<feComposite in2="hardAlpha" operator="out"/>
<feColorMatrix type="matrix" values="0 0 0 0 0.113725 0 0 0 0 0.14902 0 0 0 0 0.27451 0 0 0 0.25 0"/>
<feBlend mode="normal" in2="effect1_backgroundBlur_2_564" result="effect2_dropShadow_2_564"/>
<feBlend mode="normal" in="SourceGraphic" in2="effect2_dropShadow_2_564" result="shape"/>
</filter>
<filter id="filter2_bd_2_564" x="132" y="77" width="272" height="216.353" filterUnits="userSpaceOnUse" color-interpolation-filters="sRGB">
<feFlood flood-opacity="0" result="BackgroundImageFix"/>
<feGaussianBlur in="BackgroundImageFix" stdDeviation="7"/>
<feComposite in2="SourceAlpha" operator="in" result="effect1_backgroundBlur_2_564"/>
<feColorMatrix in="SourceAlpha" type="matrix" values="0 0 0 0 0 0 0 0 0 0 0 0 0 0 0 0 0 0 127 0" result="hardAlpha"/>
<feOffset dx="-21" dy="15"/>
<feGaussianBlur stdDeviation="25"/>
<feComposite in2="hardAlpha" operator="out"/>
<feColorMatrix type="matrix" values="0 0 0 0 0.113438 0 0 0 0 0.148981 0 0 0 0 0.275 0 0 0 0.25 0"/>
<feBlend mode="normal" in2="effect1_backgroundBlur_2_564" result="effect2_dropShadow_2_564"/>
<feBlend mode="normal" in="SourceGraphic" in2="effect2_dropShadow_2_564" result="shape"/>
</filter>
<filter id="filter3_bdd_2_564" x="45.0018" y="211.031" width="253.4" height="149.955" filterUnits="userSpaceOnUse" color-interpolation-filters="sRGB">
<feFlood flood-opacity="0" result="BackgroundImageFix"/>
<feGaussianBlur in="BackgroundImageFix" stdDeviation="7"/>
<feComposite in2="SourceAlpha" operator="in" result="effect1_backgroundBlur_2_564"/>
<feColorMatrix in="SourceAlpha" type="matrix" values="0 0 0 0 0 0 0 0 0 0 0 0 0 0 0 0 0 0 127 0" result="hardAlpha"/>
<feOffset dx="-21" dy="15"/>
<feGaussianBlur stdDeviation="25"/>
<feComposite in2="hardAlpha" operator="out"/>
<feColorMatrix type="matrix" values="0 0 0 0 0.113438 0 0 0 0 0.148981 0 0 0 0 0.275 0 0 0 0.25 0"/>
<feBlend mode="normal" in2="effect1_backgroundBlur_2_564" result="effect2_dropShadow_2_564"/>
<feColorMatrix in="SourceAlpha" type="matrix" values="0 0 0 0 0 0 0 0 0 0 0 0 0 0 0 0 0 0 127 0" result="hardAlpha"/>
<feOffset dy="-7"/>
<feGaussianBlur stdDeviation="20.5"/>
<feComposite in2="hardAlpha" operator="out"/>
<feColorMatrix type="matrix" values="0 0 0 0 0.1375 0 0 0 0 0.74125 0 0 0 0 1 0 0 0 0.3 0"/>
<feBlend mode="normal" in2="effect2_dropShadow_2_564" result="effect3_dropShadow_2_564"/>
<feBlend mode="normal" in="SourceGraphic" in2="effect3_dropShadow_2_564" result="shape"/>
</filter>
<filter id="filter4_bdd_2_564" x="60.1754" y="256.551" width="186.972" height="149.955" filterUnits="userSpaceOnUse" color-interpolation-filters="sRGB">
<feFlood flood-opacity="0" result="BackgroundImageFix"/>
<feGaussianBlur in="BackgroundImageFix" stdDeviation="7"/>
<feComposite in2="SourceAlpha" operator="in" result="effect1_backgroundBlur_2_564"/>
<feColorMatrix in="SourceAlpha" type="matrix" values="0 0 0 0 0 0 0 0 0 0 0 0 0 0 0 0 0 0 127 0" result="hardAlpha"/>
<feOffset dx="-21" dy="15"/>
<feGaussianBlur stdDeviation="25"/>
<feComposite in2="hardAlpha" operator="out"/>
<feColorMatrix type="matrix" values="0 0 0 0 0.113438 0 0 0 0 0.148981 0 0 0 0 0.275 0 0 0 0.25 0"/>
<feBlend mode="normal" in2="effect1_backgroundBlur_2_564" result="effect2_dropShadow_2_564"/>
<feColorMatrix in="SourceAlpha" type="matrix" values="0 0 0 0 0 0 0 0 0 0 0 0 0 0 0 0 0 0 127 0" result="hardAlpha"/>
<feOffset dy="-7"/>
<feGaussianBlur stdDeviation="20.5"/>
<feComposite in2="hardAlpha" operator="out"/>
<feColorMatrix type="matrix" values="0 0 0 0 0.1375 0 0 0 0 0.74125 0 0 0 0 1 0 0 0 0.3 0"/>
<feBlend mode="normal" in2="effect2_dropShadow_2_564" result="effect3_dropShadow_2_564"/>
<feBlend mode="normal" in="SourceGraphic" in2="effect3_dropShadow_2_564" result="shape"/>
</filter>
<linearGradient id="paint0_linear_2_564" x1="208.067" y1="52.1082" x2="267.39" y2="167.44" gradientUnits="userSpaceOnUse">
<stop offset="0.0001" stop-color="#D4C0FF"/>
<stop offset="1" stop-color="#7E2FFF"/>
</linearGradient>
<linearGradient id="paint1_linear_2_564" x1="214.197" y1="-11.1398" x2="250.703" y2="140.225" gradientUnits="userSpaceOnUse">
<stop stop-color="white"/>
<stop offset="1" stop-color="white" stop-opacity="0"/>
</linearGradient>
<linearGradient id="paint2_linear_2_564" x1="190" y1="60.5" x2="190" y2="295.5" gradientUnits="userSpaceOnUse">
<stop stop-color="white"/>
<stop offset="1" stop-color="white" stop-opacity="0"/>
</linearGradient>
<linearGradient id="paint3_linear_2_564" x1="190" y1="112" x2="190" y2="273" gradientUnits="userSpaceOnUse">
<stop stop-color="white"/>
<stop offset="1" stop-color="white" stop-opacity="0"/>
</linearGradient>
<linearGradient id="paint4_linear_2_564" x1="297" y1="115.5" x2="297" y2="241.5" gradientUnits="userSpaceOnUse">
<stop stop-color="white"/>
<stop offset="1" stop-color="white" stop-opacity="0"/>
</linearGradient>
<linearGradient id="paint5_linear_2_564" x1="289" y1="112" x2="289" y2="228.353" gradientUnits="userSpaceOnUse">
<stop stop-color="white"/>
<stop offset="1" stop-color="white" stop-opacity="0"/>
</linearGradient>
<linearGradient id="paint6_linear_2_564" x1="139.905" y1="247.585" x2="125.359" y2="295.404" gradientUnits="userSpaceOnUse">
<stop stop-color="#138EFF"/>
<stop offset="1" stop-color="#00E0FF"/>
</linearGradient>
<linearGradient id="paint7_linear_2_564" x1="139.905" y1="247.585" x2="125.359" y2="295.404" gradientUnits="userSpaceOnUse">
<stop stop-color="white"/>
<stop offset="1" stop-color="white" stop-opacity="0"/>
</linearGradient>
<linearGradient id="paint8_linear_2_564" x1="197.413" y1="247.585" x2="182.867" y2="295.404" gradientUnits="userSpaceOnUse">
<stop stop-color="#138EFF"/>
<stop offset="1" stop-color="#00E0FF"/>
</linearGradient>
<linearGradient id="paint9_linear_2_564" x1="197.413" y1="247.585" x2="182.867" y2="295.404" gradientUnits="userSpaceOnUse">
<stop stop-color="white"/>
<stop offset="1" stop-color="white" stop-opacity="0"/>
</linearGradient>
<linearGradient id="paint10_linear_2_564" x1="254.92" y1="247.585" x2="240.374" y2="295.404" gradientUnits="userSpaceOnUse">
<stop stop-color="#138EFF"/>
<stop offset="1" stop-color="#00E0FF"/>
</linearGradient>
<linearGradient id="paint11_linear_2_564" x1="254.92" y1="247.585" x2="240.374" y2="295.404" gradientUnits="userSpaceOnUse">
<stop stop-color="white"/>
<stop offset="1" stop-color="white" stop-opacity="0"/>
</linearGradient>
<linearGradient id="paint12_linear_2_564" x1="155.079" y1="293.105" x2="140.533" y2="340.925" gradientUnits="userSpaceOnUse">
<stop stop-color="#138EFF"/>
<stop offset="1" stop-color="#00E0FF"/>
</linearGradient>
<linearGradient id="paint13_linear_2_564" x1="155.079" y1="293.105" x2="140.533" y2="340.925" gradientUnits="userSpaceOnUse">
<stop stop-color="white"/>
<stop offset="1" stop-color="white" stop-opacity="0"/>
</linearGradient>
<linearGradient id="paint14_linear_2_564" x1="203.666" y1="293.105" x2="189.12" y2="340.925" gradientUnits="userSpaceOnUse">
<stop stop-color="#138EFF"/>
<stop offset="1" stop-color="#00E0FF"/>
</linearGradient>
<linearGradient id="paint15_linear_2_564" x1="203.666" y1="293.105" x2="189.12" y2="340.925" gradientUnits="userSpaceOnUse">
<stop stop-color="white"/>
<stop offset="1" stop-color="white" stop-opacity="0"/>
</linearGradient>
</defs>
</svg>
